  0
SECTION
  2
HEADER
  9
$ANGBASE
  50
0.0
  9
$ANGDIR
  70
1
  9
$MEASUREMENT
  70
0
  0
ENDSEC
  0
SECTION
  2
TABLES
  0
TABLE
  2
LTYPE
  70
4
  0
LTYPE
  5
40F
  2
CONTINUOUS
  70
0
  3
Solid line
  72
65
  73
0
  40
0.0
  0
LTYPE
  5
410
  2
DASHDOT
 70
0
  3
Dash Dot ____ _ ____ _
 72
65
 73
4
 40
2.0
 49
1.25
 49
-0.25
 49
0.25
 49
-0.25
  0
LTYPE
  5
411
  2
DASHED
 70
0
  3
Dashed __ __ __ __ __
 72
65
 73
2
 40
0.75
 49
0.5
 49
-0.25
  0
LTYPE
  5
43B
  2
DOTTED
 70
0
  3
Dotted .  .  .  .
 72
65
 73
2
 40
0.2
 49
0.0
 49
-0.2
  0
ENDTAB
  0
TABLE
  2
STYLE
  70
4
  0
STYLE
  2
KICAD
  70
0
  40
0
  41
1
  42
1
  50
0
  71
0
  3
isocp.shx
  0
STYLE
  2
KICADB
  70
0
  40
0
  41
1
  42
1
  50
0
  71
0
  3
isocp.shx
  0
STYLE
  2
KICADI
  70
0
  40
0
  41
1
  42
1
  50
15
  71
0
  3
isocp.shx
  0
STYLE
  2
KICADBI
  70
0
  40
0
  41
1
  42
1
  50
15
  71
0
  3
isocp.shx
  0
ENDTAB
  0
TABLE
  2
LAYER
  70
1
  0
LAYER
  2
BLACK
  70
0
  62
7
  6
CONTINUOUS
  0
ENDTAB
  0
ENDSEC
  0
SECTION
  2
ENTITIES
0
LINE
8
BLACK
6
CONTINUOUS
10
4.7678727559055121
20
-2.9604210629921259
11
4.7754429527559052
21
-2.962717440944882
0
LINE
8
BLACK
6
CONTINUOUS
10
4.7754429527559052
20
-2.962717440944882
11
4.7824196456692913
21
-2.9664466141732282
0
LINE
8
BLACK
6
CONTINUOUS
10
4.7824196456692913
20
-2.9664466141732282
11
4.7885348031496058
21
-2.9714651968503936
0
LINE
8
BLACK
6
CONTINUOUS
10
4.7885348031496058
20
-2.9714651968503936
11
4.7935533858267716
21
-2.9775803543307084
0
LINE
8
BLACK
6
CONTINUOUS
10
4.7935533858267716
20
-2.9775803543307084
11
4.7972825590551178
21
-2.9845570472440945
0
LINE
8
BLACK
6
CONTINUOUS
10
4.7972825590551178
20
-2.9845570472440945
11
4.7995789370078743
21
-2.9921272440944882
0
LINE
8
BLACK
6
CONTINUOUS
10
4.7995789370078743
20
-2.9921272440944882
11
4.8003543307086609
21
-3.
0
LINE
8
BLACK
6
CONTINUOUS
10
4.8003543307086609
20
-3.
11
4.7995789370078743
21
-3.0078727559055118
0
LINE
8
BLACK
6
CONTINUOUS
10
4.7995789370078743
20
-3.0078727559055118
11
4.7972825590551178
21
-3.0154429527559055
0
LINE
8
BLACK
6
CONTINUOUS
10
4.7972825590551178
20
-3.0154429527559055
11
4.7935533858267716
21
-3.0224196456692911
0
LINE
8
BLACK
6
CONTINUOUS
10
4.7935533858267716
20
-3.0224196456692911
11
4.7885348031496058
21
-3.0285348031496064
0
LINE
8
BLACK
6
CONTINUOUS
10
4.7885348031496058
20
-3.0285348031496064
11
4.7824196456692913
21
-3.0335533858267714
0
LINE
8
BLACK
6
CONTINUOUS
10
4.7824196456692913
20
-3.0335533858267714
11
4.7754429527559052
21
-3.037282559055118
0
LINE
8
BLACK
6
CONTINUOUS
10
4.7754429527559052
20
-3.037282559055118
11
4.7678727559055121
21
-3.0395789370078741
0
LINE
8
BLACK
6
CONTINUOUS
10
4.7678727559055121
20
-3.0395789370078741
11
4.7599999999999998
21
-3.0403543307086616
0
LINE
8
BLACK
6
CONTINUOUS
10
4.7599999999999998
20
-3.0403543307086616
11
4.7521272440944884
21
-3.0395789370078741
0
LINE
8
BLACK
6
CONTINUOUS
10
4.7521272440944884
20
-3.0395789370078741
11
4.7445570472440943
21
-3.037282559055118
0
LINE
8
BLACK
6
CONTINUOUS
10
4.7445570472440943
20
-3.037282559055118
11
4.7375803543307082
21
-3.0335533858267714
0
LINE
8
BLACK
6
CONTINUOUS
10
4.7375803543307082
20
-3.0335533858267714
11
4.7314651968503938
21
-3.0285348031496064
0
LINE
8
BLACK
6
CONTINUOUS
10
4.7314651968503938
20
-3.0285348031496064
11
4.726446614173228
21
-3.0224196456692911
0
LINE
8
BLACK
6
CONTINUOUS
10
4.726446614173228
20
-3.0224196456692911
11
4.7227174409448818
21
-3.0154429527559055
0
LINE
8
BLACK
6
CONTINUOUS
10
4.7227174409448818
20
-3.0154429527559055
11
4.7204210629921262
21
-3.0078727559055118
0
LINE
8
BLACK
6
CONTINUOUS
10
4.7204210629921262
20
-3.0078727559055118
11
4.7196456692913387
21
-3.
0
LINE
8
BLACK
6
CONTINUOUS
10
4.7196456692913387
20
-3.
11
4.7204210629921262
21
-2.9921272440944882
0
LINE
8
BLACK
6
CONTINUOUS
10
4.7204210629921262
20
-2.9921272440944882
11
4.7227174409448818
21
-2.9845570472440945
0
LINE
8
BLACK
6
CONTINUOUS
10
4.7227174409448818
20
-2.9845570472440945
11
4.726446614173228
21
-2.9775803543307084
0
LINE
8
BLACK
6
CONTINUOUS
10
4.726446614173228
20
-2.9775803543307084
11
4.7314651968503938
21
-2.9714651968503936
0
LINE
8
BLACK
6
CONTINUOUS
10
4.7314651968503938
20
-2.9714651968503936
11
4.7375803543307082
21
-2.9664466141732282
0
LINE
8
BLACK
6
CONTINUOUS
10
4.7375803543307082
20
-2.9664466141732282
11
4.7445570472440943
21
-2.962717440944882
0
LINE
8
BLACK
6
CONTINUOUS
10
4.7445570472440943
20
-2.962717440944882
11
4.7521272440944884
21
-2.9604210629921259
0
LINE
8
BLACK
6
CONTINUOUS
10
4.7521272440944884
20
-2.9604210629921259
11
4.7599999999999998
21
-2.9596456692913384
0
LINE
8
BLACK
6
CONTINUOUS
10
4.7599999999999998
20
-2.9596456692913384
11
4.7678727559055121
21
-2.9604210629921259
0
LINE
8
BLACK
6
CONTINUOUS
10
4.7221695669291339
20
-3.007524960629921
11
4.7243645275590547
21
-3.0147607086614174
0
LINE
8
BLACK
6
CONTINUOUS
10
4.7243645275590547
20
-3.0147607086614174
11
4.7279288976377956
21
-3.021429212598425
0
LINE
8
BLACK
6
CONTINUOUS
10
4.7279288976377956
20
-3.021429212598425
11
4.7327257874015745
21
-3.0272742125984253
0
LINE
8
BLACK
6
CONTINUOUS
10
4.7327257874015745
20
-3.0272742125984253
11
4.7385707874015743
21
-3.0320711023622047
0
LINE
8
BLACK
6
CONTINUOUS
10
4.7385707874015743
20
-3.0320711023622047
11
4.7452392913385824
21
-3.0356354724409447
0
LINE
8
BLACK
6
CONTINUOUS
10
4.7452392913385824
20
-3.0356354724409447
11
4.7524750393700783
21
-3.0378304330708659
0
LINE
8
BLACK
6
CONTINUOUS
10
4.7524750393700783
20
-3.0378304330708659
11
4.7599999999999998
21
-3.0385715748031497
0
LINE
8
BLACK
6
CONTINUOUS
10
4.7599999999999998
20
-3.0385715748031497
11
4.7675249606299213
21
-3.0378304330708659
0
LINE
8
BLACK
6
CONTINUOUS
10
4.7675249606299213
20
-3.0378304330708659
11
4.7747607086614172
21
-3.0356354724409447
0
LINE
8
BLACK
6
CONTINUOUS
10
4.7747607086614172
20
-3.0356354724409447
11
4.7814292125984252
21
-3.0320711023622047
0
LINE
8
BLACK
6
CONTINUOUS
10
4.7814292125984252
20
-3.0320711023622047
11
4.7872742125984251
21
-3.0272742125984253
0
LINE
8
BLACK
6
CONTINUOUS
10
4.7872742125984251
20
-3.0272742125984253
11
4.7920711023622049
21
-3.021429212598425
0
LINE
8
BLACK
6
CONTINUOUS
10
4.7920711023622049
20
-3.021429212598425
11
4.7956354724409449
21
-3.0147607086614174
0
LINE
8
BLACK
6
CONTINUOUS
10
4.7956354724409449
20
-3.0147607086614174
11
4.7978304330708657
21
-3.007524960629921
0
LINE
8
BLACK
6
CONTINUOUS
10
4.7978304330708657
20
-3.007524960629921
11
4.7985715748031499
21
-3.
0
LINE
8
BLACK
6
CONTINUOUS
10
4.7985715748031499
20
-3.
11
4.7978304330708657
21
-2.9924750393700785
0
LINE
8
BLACK
6
CONTINUOUS
10
4.7978304330708657
20
-2.9924750393700785
11
4.7956354724409449
21
-2.9852392913385826
0
LINE
8
BLACK
6
CONTINUOUS
10
4.7956354724409449
20
-2.9852392913385826
11
4.7920711023622049
21
-2.9785707874015745
0
LINE
8
BLACK
6
CONTINUOUS
10
4.7920711023622049
20
-2.9785707874015745
11
4.7872742125984251
21
-2.9727257874015747
0
LINE
8
BLACK
6
CONTINUOUS
10
4.7872742125984251
20
-2.9727257874015747
11
4.7814292125984252
21
-2.9679288976377953
0
LINE
8
BLACK
6
CONTINUOUS
10
4.7814292125984252
20
-2.9679288976377953
11
4.7747607086614172
21
-2.9643645275590549
0
LINE
8
BLACK
6
CONTINUOUS
10
4.7747607086614172
20
-2.9643645275590549
11
4.7675249606299213
21
-2.9621695669291337
0
LINE
8
BLACK
6
CONTINUOUS
10
4.7675249606299213
20
-2.9621695669291337
11
4.7599999999999998
21
-2.9614284251968503
0
LINE
8
BLACK
6
CONTINUOUS
10
4.7599999999999998
20
-2.9614284251968503
11
4.7524750393700783
21
-2.9621695669291337
0
LINE
8
BLACK
6
CONTINUOUS
10
4.7524750393700783
20
-2.9621695669291337
11
4.7452392913385824
21
-2.9643645275590549
0
LINE
8
BLACK
6
CONTINUOUS
10
4.7452392913385824
20
-2.9643645275590549
11
4.7385707874015743
21
-2.9679288976377953
0
LINE
8
BLACK
6
CONTINUOUS
10
4.7385707874015743
20
-2.9679288976377953
11
4.7327257874015745
21
-2.9727257874015747
0
LINE
8
BLACK
6
CONTINUOUS
10
4.7327257874015745
20
-2.9727257874015747
11
4.7279288976377956
21
-2.9785707874015745
0
LINE
8
BLACK
6
CONTINUOUS
10
4.7279288976377956
20
-2.9785707874015745
11
4.7243645275590547
21
-2.9852392913385826
0
LINE
8
BLACK
6
CONTINUOUS
10
4.7243645275590547
20
-2.9852392913385826
11
4.7221695669291339
21
-2.9924750393700785
0
LINE
8
BLACK
6
CONTINUOUS
10
4.7221695669291339
20
-2.9924750393700785
11
4.7214284251968506
21
-3.
0
LINE
8
BLACK
6
CONTINUOUS
10
4.7214284251968506
20
-3.
11
4.7221695669291339
21
-3.007524960629921
0
LINE
8
BLACK
6
CONTINUOUS
10
5.2978727559055114
20
-2.9604210629921259
11
5.3054429527559055
21
-2.962717440944882
0
LINE
8
BLACK
6
CONTINUOUS
10
5.3054429527559055
20
-2.962717440944882
11
5.3124196456692916
21
-2.9664466141732282
0
LINE
8
BLACK
6
CONTINUOUS
10
5.3124196456692916
20
-2.9664466141732282
11
5.318534803149606
21
-2.9714651968503936
0
LINE
8
BLACK
6
CONTINUOUS
10
5.318534803149606
20
-2.9714651968503936
11
5.3235533858267718
21
-2.9775803543307084
0
LINE
8
BLACK
6
CONTINUOUS
10
5.3235533858267718
20
-2.9775803543307084
11
5.327282559055118
21
-2.9845570472440945
0
LINE
8
BLACK
6
CONTINUOUS
10
5.327282559055118
20
-2.9845570472440945
11
5.3295789370078737
21
-2.9921272440944882
0
LINE
8
BLACK
6
CONTINUOUS
10
5.3295789370078737
20
-2.9921272440944882
11
5.3303543307086612
21
-3.
0
LINE
8
BLACK
6
CONTINUOUS
10
5.3303543307086612
20
-3.
11
5.3295789370078737
21
-3.0078727559055118
0
LINE
8
BLACK
6
CONTINUOUS
10
5.3295789370078737
20
-3.0078727559055118
11
5.327282559055118
21
-3.0154429527559055
0
LINE
8
BLACK
6
CONTINUOUS
10
5.327282559055118
20
-3.0154429527559055
11
5.3235533858267718
21
-3.0224196456692911
0
LINE
8
BLACK
6
CONTINUOUS
10
5.3235533858267718
20
-3.0224196456692911
11
5.318534803149606
21
-3.0285348031496064
0
LINE
8
BLACK
6
CONTINUOUS
10
5.318534803149606
20
-3.0285348031496064
11
5.3124196456692916
21
-3.0335533858267714
0
LINE
8
BLACK
6
CONTINUOUS
10
5.3124196456692916
20
-3.0335533858267714
11
5.3054429527559055
21
-3.037282559055118
0
LINE
8
BLACK
6
CONTINUOUS
10
5.3054429527559055
20
-3.037282559055118
11
5.2978727559055114
21
-3.0395789370078741
0
LINE
8
BLACK
6
CONTINUOUS
10
5.2978727559055114
20
-3.0395789370078741
11
5.29
21
-3.0403543307086616
0
LINE
8
BLACK
6
CONTINUOUS
10
5.29
20
-3.0403543307086616
11
5.2821272440944878
21
-3.0395789370078741
0
LINE
8
BLACK
6
CONTINUOUS
10
5.2821272440944878
20
-3.0395789370078741
11
5.2745570472440946
21
-3.037282559055118
0
LINE
8
BLACK
6
CONTINUOUS
10
5.2745570472440946
20
-3.037282559055118
11
5.2675803543307085
21
-3.0335533858267714
0
LINE
8
BLACK
6
CONTINUOUS
10
5.2675803543307085
20
-3.0335533858267714
11
5.2614651968503932
21
-3.0285348031496064
0
LINE
8
BLACK
6
CONTINUOUS
10
5.2614651968503932
20
-3.0285348031496064
11
5.2564466141732282
21
-3.0224196456692911
0
LINE
8
BLACK
6
CONTINUOUS
10
5.2564466141732282
20
-3.0224196456692911
11
5.252717440944882
21
-3.0154429527559055
0
LINE
8
BLACK
6
CONTINUOUS
10
5.252717440944882
20
-3.0154429527559055
11
5.2504210629921255
21
-3.0078727559055118
0
LINE
8
BLACK
6
CONTINUOUS
10
5.2504210629921255
20
-3.0078727559055118
11
5.249645669291338
21
-3.
0
LINE
8
BLACK
6
CONTINUOUS
10
5.249645669291338
20
-3.
11
5.2504210629921255
21
-2.9921272440944882
0
LINE
8
BLACK
6
CONTINUOUS
10
5.2504210629921255
20
-2.9921272440944882
11
5.252717440944882
21
-2.9845570472440945
0
LINE
8
BLACK
6
CONTINUOUS
10
5.252717440944882
20
-2.9845570472440945
11
5.2564466141732282
21
-2.9775803543307084
0
LINE
8
BLACK
6
CONTINUOUS
10
5.2564466141732282
20
-2.9775803543307084
11
5.2614651968503932
21
-2.9714651968503936
0
LINE
8
BLACK
6
CONTINUOUS
10
5.2614651968503932
20
-2.9714651968503936
11
5.2675803543307085
21
-2.9664466141732282
0
LINE
8
BLACK
6
CONTINUOUS
10
5.2675803543307085
20
-2.9664466141732282
11
5.2745570472440946
21
-2.962717440944882
0
LINE
8
BLACK
6
CONTINUOUS
10
5.2745570472440946
20
-2.962717440944882
11
5.2821272440944878
21
-2.9604210629921259
0
LINE
8
BLACK
6
CONTINUOUS
10
5.2821272440944878
20
-2.9604210629921259
11
5.29
21
-2.9596456692913384
0
LINE
8
BLACK
6
CONTINUOUS
10
5.29
20
-2.9596456692913384
11
5.2978727559055114
21
-2.9604210629921259
0
LINE
8
BLACK
6
CONTINUOUS
10
5.2521695669291342
20
-3.007524960629921
11
5.2543645275590549
21
-3.0147607086614174
0
LINE
8
BLACK
6
CONTINUOUS
10
5.2543645275590549
20
-3.0147607086614174
11
5.2579288976377949
21
-3.021429212598425
0
LINE
8
BLACK
6
CONTINUOUS
10
5.2579288976377949
20
-3.021429212598425
11
5.2627257874015747
21
-3.0272742125984253
0
LINE
8
BLACK
6
CONTINUOUS
10
5.2627257874015747
20
-3.0272742125984253
11
5.2685707874015746
21
-3.0320711023622047
0
LINE
8
BLACK
6
CONTINUOUS
10
5.2685707874015746
20
-3.0320711023622047
11
5.2752392913385826
21
-3.0356354724409447
0
LINE
8
BLACK
6
CONTINUOUS
10
5.2752392913385826
20
-3.0356354724409447
11
5.2824750393700786
21
-3.0378304330708659
0
LINE
8
BLACK
6
CONTINUOUS
10
5.2824750393700786
20
-3.0378304330708659
11
5.29
21
-3.0385715748031497
0
LINE
8
BLACK
6
CONTINUOUS
10
5.29
20
-3.0385715748031497
11
5.2975249606299215
21
-3.0378304330708659
0
LINE
8
BLACK
6
CONTINUOUS
10
5.2975249606299215
20
-3.0378304330708659
11
5.3047607086614175
21
-3.0356354724409447
0
LINE
8
BLACK
6
CONTINUOUS
10
5.3047607086614175
20
-3.0356354724409447
11
5.3114292125984255
21
-3.0320711023622047
0
LINE
8
BLACK
6
CONTINUOUS
10
5.3114292125984255
20
-3.0320711023622047
11
5.3172742125984254
21
-3.0272742125984253
0
LINE
8
BLACK
6
CONTINUOUS
10
5.3172742125984254
20
-3.0272742125984253
11
5.3220711023622043
21
-3.021429212598425
0
LINE
8
BLACK
6
CONTINUOUS
10
5.3220711023622043
20
-3.021429212598425
11
5.3256354724409452
21
-3.0147607086614174
0
LINE
8
BLACK
6
CONTINUOUS
10
5.3256354724409452
20
-3.0147607086614174
11
5.3278304330708659
21
-3.007524960629921
0
LINE
8
BLACK
6
CONTINUOUS
10
5.3278304330708659
20
-3.007524960629921
11
5.3285715748031492
21
-3.
0
LINE
8
BLACK
6
CONTINUOUS
10
5.3285715748031492
20
-3.
11
5.3278304330708659
21
-2.9924750393700785
0
LINE
8
BLACK
6
CONTINUOUS
10
5.3278304330708659
20
-2.9924750393700785
11
5.3256354724409452
21
-2.9852392913385826
0
LINE
8
BLACK
6
CONTINUOUS
10
5.3256354724409452
20
-2.9852392913385826
11
5.3220711023622043
21
-2.9785707874015745
0
LINE
8
BLACK
6
CONTINUOUS
10
5.3220711023622043
20
-2.9785707874015745
11
5.3172742125984254
21
-2.9727257874015747
0
LINE
8
BLACK
6
CONTINUOUS
10
5.3172742125984254
20
-2.9727257874015747
11
5.3114292125984255
21
-2.9679288976377953
0
LINE
8
BLACK
6
CONTINUOUS
10
5.3114292125984255
20
-2.9679288976377953
11
5.3047607086614175
21
-2.9643645275590549
0
LINE
8
BLACK
6
CONTINUOUS
10
5.3047607086614175
20
-2.9643645275590549
11
5.2975249606299215
21
-2.9621695669291337
0
LINE
8
BLACK
6
CONTINUOUS
10
5.2975249606299215
20
-2.9621695669291337
11
5.29
21
-2.9614284251968503
0
LINE
8
BLACK
6
CONTINUOUS
10
5.29
20
-2.9614284251968503
11
5.2824750393700786
21
-2.9621695669291337
0
LINE
8
BLACK
6
CONTINUOUS
10
5.2824750393700786
20
-2.9621695669291337
11
5.2752392913385826
21
-2.9643645275590549
0
LINE
8
BLACK
6
CONTINUOUS
10
5.2752392913385826
20
-2.9643645275590549
11
5.2685707874015746
21
-2.9679288976377953
0
LINE
8
BLACK
6
CONTINUOUS
10
5.2685707874015746
20
-2.9679288976377953
11
5.2627257874015747
21
-2.9727257874015747
0
LINE
8
BLACK
6
CONTINUOUS
10
5.2627257874015747
20
-2.9727257874015747
11
5.2579288976377949
21
-2.9785707874015745
0
LINE
8
BLACK
6
CONTINUOUS
10
5.2579288976377949
20
-2.9785707874015745
11
5.2543645275590549
21
-2.9852392913385826
0
LINE
8
BLACK
6
CONTINUOUS
10
5.2543645275590549
20
-2.9852392913385826
11
5.2521695669291342
21
-2.9924750393700785
0
LINE
8
BLACK
6
CONTINUOUS
10
5.2521695669291342
20
-2.9924750393700785
11
5.2514284251968499
21
-3.
0
LINE
8
BLACK
6
CONTINUOUS
10
5.2514284251968499
20
-3.
11
5.2521695669291342
21
-3.007524960629921
0
LINE
8
BLACK
6
CONTINUOUS
10
5.8278727559055117
20
-2.9604210629921259
11
5.8354429527559057
21
-2.962717440944882
0
LINE
8
BLACK
6
CONTINUOUS
10
5.8354429527559057
20
-2.962717440944882
11
5.842419645669291
21
-2.9664466141732282
0
LINE
8
BLACK
6
CONTINUOUS
10
5.842419645669291
20
-2.9664466141732282
11
5.8485348031496063
21
-2.9714651968503936
0
LINE
8
BLACK
6
CONTINUOUS
10
5.8485348031496063
20
-2.9714651968503936
11
5.8535533858267712
21
-2.9775803543307084
0
LINE
8
BLACK
6
CONTINUOUS
10
5.8535533858267712
20
-2.9775803543307084
11
5.8572825590551183
21
-2.9845570472440945
0
LINE
8
BLACK
6
CONTINUOUS
10
5.8572825590551183
20
-2.9845570472440945
11
5.8595789370078739
21
-2.9921272440944882
0
LINE
8
BLACK
6
CONTINUOUS
10
5.8595789370078739
20
-2.9921272440944882
11
5.8603543307086614
21
-3.
0
LINE
8
BLACK
6
CONTINUOUS
10
5.8603543307086614
20
-3.
11
5.8595789370078739
21
-3.0078727559055118
0
LINE
8
BLACK
6
CONTINUOUS
10
5.8595789370078739
20
-3.0078727559055118
11
5.8572825590551183
21
-3.0154429527559055
0
LINE
8
BLACK
6
CONTINUOUS
10
5.8572825590551183
20
-3.0154429527559055
11
5.8535533858267712
21
-3.0224196456692911
0
LINE
8
BLACK
6
CONTINUOUS
10
5.8535533858267712
20
-3.0224196456692911
11
5.8485348031496063
21
-3.0285348031496064
0
LINE
8
BLACK
6
CONTINUOUS
10
5.8485348031496063
20
-3.0285348031496064
11
5.842419645669291
21
-3.0335533858267714
0
LINE
8
BLACK
6
CONTINUOUS
10
5.842419645669291
20
-3.0335533858267714
11
5.8354429527559057
21
-3.037282559055118
0
LINE
8
BLACK
6
CONTINUOUS
10
5.8354429527559057
20
-3.037282559055118
11
5.8278727559055117
21
-3.0395789370078741
0
LINE
8
BLACK
6
CONTINUOUS
10
5.8278727559055117
20
-3.0395789370078741
11
5.8200000000000003
21
-3.0403543307086616
0
LINE
8
BLACK
6
CONTINUOUS
10
5.8200000000000003
20
-3.0403543307086616
11
5.812127244094488
21
-3.0395789370078741
0
LINE
8
BLACK
6
CONTINUOUS
10
5.812127244094488
20
-3.0395789370078741
11
5.8045570472440939
21
-3.037282559055118
0
LINE
8
BLACK
6
CONTINUOUS
10
5.8045570472440939
20
-3.037282559055118
11
5.7975803543307087
21
-3.0335533858267714
0
LINE
8
BLACK
6
CONTINUOUS
10
5.7975803543307087
20
-3.0335533858267714
11
5.7914651968503934
21
-3.0285348031496064
0
LINE
8
BLACK
6
CONTINUOUS
10
5.7914651968503934
20
-3.0285348031496064
11
5.7864466141732285
21
-3.0224196456692911
0
LINE
8
BLACK
6
CONTINUOUS
10
5.7864466141732285
20
-3.0224196456692911
11
5.7827174409448814
21
-3.0154429527559055
0
LINE
8
BLACK
6
CONTINUOUS
10
5.7827174409448814
20
-3.0154429527559055
11
5.7804210629921258
21
-3.0078727559055118
0
LINE
8
BLACK
6
CONTINUOUS
10
5.7804210629921258
20
-3.0078727559055118
11
5.7796456692913383
21
-3.
0
LINE
8
BLACK
6
CONTINUOUS
10
5.7796456692913383
20
-3.
11
5.7804210629921258
21
-2.9921272440944882
0
LINE
8
BLACK
6
CONTINUOUS
10
5.7804210629921258
20
-2.9921272440944882
11
5.7827174409448814
21
-2.9845570472440945
0
LINE
8
BLACK
6
CONTINUOUS
10
5.7827174409448814
20
-2.9845570472440945
11
5.7864466141732285
21
-2.9775803543307084
0
LINE
8
BLACK
6
CONTINUOUS
10
5.7864466141732285
20
-2.9775803543307084
11
5.7914651968503934
21
-2.9714651968503936
0
LINE
8
BLACK
6
CONTINUOUS
10
5.7914651968503934
20
-2.9714651968503936
11
5.7975803543307087
21
-2.9664466141732282
0
LINE
8
BLACK
6
CONTINUOUS
10
5.7975803543307087
20
-2.9664466141732282
11
5.8045570472440939
21
-2.962717440944882
0
LINE
8
BLACK
6
CONTINUOUS
10
5.8045570472440939
20
-2.962717440944882
11
5.812127244094488
21
-2.9604210629921259
0
LINE
8
BLACK
6
CONTINUOUS
10
5.812127244094488
20
-2.9604210629921259
11
5.8200000000000003
21
-2.9596456692913384
0
LINE
8
BLACK
6
CONTINUOUS
10
5.8200000000000003
20
-2.9596456692913384
11
5.8278727559055117
21
-2.9604210629921259
0
LINE
8
BLACK
6
CONTINUOUS
10
5.7821695669291335
20
-3.007524960629921
11
5.7843645275590552
21
-3.0147607086614174
0
LINE
8
BLACK
6
CONTINUOUS
10
5.7843645275590552
20
-3.0147607086614174
11
5.7879288976377952
21
-3.021429212598425
0
LINE
8
BLACK
6
CONTINUOUS
10
5.7879288976377952
20
-3.021429212598425
11
5.792725787401575
21
-3.0272742125984253
0
LINE
8
BLACK
6
CONTINUOUS
10
5.792725787401575
20
-3.0272742125984253
11
5.7985707874015748
21
-3.0320711023622047
0
LINE
8
BLACK
6
CONTINUOUS
10
5.7985707874015748
20
-3.0320711023622047
11
5.8052392913385829
21
-3.0356354724409447
0
LINE
8
BLACK
6
CONTINUOUS
10
5.8052392913385829
20
-3.0356354724409447
11
5.8124750393700788
21
-3.0378304330708659
0
LINE
8
BLACK
6
CONTINUOUS
10
5.8124750393700788
20
-3.0378304330708659
11
5.8200000000000003
21
-3.0385715748031497
0
LINE
8
BLACK
6
CONTINUOUS
10
5.8200000000000003
20
-3.0385715748031497
11
5.8275249606299209
21
-3.0378304330708659
0
LINE
8
BLACK
6
CONTINUOUS
10
5.8275249606299209
20
-3.0378304330708659
11
5.8347607086614168
21
-3.0356354724409447
0
LINE
8
BLACK
6
CONTINUOUS
10
5.8347607086614168
20
-3.0356354724409447
11
5.8414292125984248
21
-3.0320711023622047
0
LINE
8
BLACK
6
CONTINUOUS
10
5.8414292125984248
20
-3.0320711023622047
11
5.8472742125984247
21
-3.0272742125984253
0
LINE
8
BLACK
6
CONTINUOUS
10
5.8472742125984247
20
-3.0272742125984253
11
5.8520711023622045
21
-3.021429212598425
0
LINE
8
BLACK
6
CONTINUOUS
10
5.8520711023622045
20
-3.021429212598425
11
5.8556354724409445
21
-3.0147607086614174
0
LINE
8
BLACK
6
CONTINUOUS
10
5.8556354724409445
20
-3.0147607086614174
11
5.8578304330708661
21
-3.007524960629921
0
LINE
8
BLACK
6
CONTINUOUS
10
5.8578304330708661
20
-3.007524960629921
11
5.8585715748031495
21
-3.
0
LINE
8
BLACK
6
CONTINUOUS
10
5.8585715748031495
20
-3.
11
5.8578304330708661
21
-2.9924750393700785
0
LINE
8
BLACK
6
CONTINUOUS
10
5.8578304330708661
20
-2.9924750393700785
11
5.8556354724409445
21
-2.9852392913385826
0
LINE
8
BLACK
6
CONTINUOUS
10
5.8556354724409445
20
-2.9852392913385826
11
5.8520711023622045
21
-2.9785707874015745
0
LINE
8
BLACK
6
CONTINUOUS
10
5.8520711023622045
20
-2.9785707874015745
11
5.8472742125984247
21
-2.9727257874015747
0
LINE
8
BLACK
6
CONTINUOUS
10
5.8472742125984247
20
-2.9727257874015747
11
5.8414292125984248
21
-2.9679288976377953
0
LINE
8
BLACK
6
CONTINUOUS
10
5.8414292125984248
20
-2.9679288976377953
11
5.8347607086614168
21
-2.9643645275590549
0
LINE
8
BLACK
6
CONTINUOUS
10
5.8347607086614168
20
-2.9643645275590549
11
5.8275249606299209
21
-2.9621695669291337
0
LINE
8
BLACK
6
CONTINUOUS
10
5.8275249606299209
20
-2.9621695669291337
11
5.8200000000000003
21
-2.9614284251968503
0
LINE
8
BLACK
6
CONTINUOUS
10
5.8200000000000003
20
-2.9614284251968503
11
5.8124750393700788
21
-2.9621695669291337
0
LINE
8
BLACK
6
CONTINUOUS
10
5.8124750393700788
20
-2.9621695669291337
11
5.8052392913385829
21
-2.9643645275590549
0
LINE
8
BLACK
6
CONTINUOUS
10
5.8052392913385829
20
-2.9643645275590549
11
5.7985707874015748
21
-2.9679288976377953
0
LINE
8
BLACK
6
CONTINUOUS
10
5.7985707874015748
20
-2.9679288976377953
11
5.792725787401575
21
-2.9727257874015747
0
LINE
8
BLACK
6
CONTINUOUS
10
5.792725787401575
20
-2.9727257874015747
11
5.7879288976377952
21
-2.9785707874015745
0
LINE
8
BLACK
6
CONTINUOUS
10
5.7879288976377952
20
-2.9785707874015745
11
5.7843645275590552
21
-2.9852392913385826
0
LINE
8
BLACK
6
CONTINUOUS
10
5.7843645275590552
20
-2.9852392913385826
11
5.7821695669291335
21
-2.9924750393700785
0
LINE
8
BLACK
6
CONTINUOUS
10
5.7821695669291335
20
-2.9924750393700785
11
5.7814284251968502
21
-3.
0
LINE
8
BLACK
6
CONTINUOUS
10
5.7814284251968502
20
-3.
11
5.7821695669291335
21
-3.007524960629921
0
LINE
8
BLACK
6
CONTINUOUS
10
6.3578727559055119
20
-2.9604210629921259
11
6.3654429527559051
21
-2.962717440944882
0
LINE
8
BLACK
6
CONTINUOUS
10
6.3654429527559051
20
-2.962717440944882
11
6.3724196456692912
21
-2.9664466141732282
0
LINE
8
BLACK
6
CONTINUOUS
10
6.3724196456692912
20
-2.9664466141732282
11
6.3785348031496065
21
-2.9714651968503936
0
LINE
8
BLACK
6
CONTINUOUS
10
6.3785348031496065
20
-2.9714651968503936
11
6.3835533858267715
21
-2.9775803543307084
0
LINE
8
BLACK
6
CONTINUOUS
10
6.3835533858267715
20
-2.9775803543307084
11
6.3872825590551177
21
-2.9845570472440945
0
LINE
8
BLACK
6
CONTINUOUS
10
6.3872825590551177
20
-2.9845570472440945
11
6.3895789370078742
21
-2.9921272440944882
0
LINE
8
BLACK
6
CONTINUOUS
10
6.3895789370078742
20
-2.9921272440944882
11
6.3903543307086617
21
-3.
0
LINE
8
BLACK
6
CONTINUOUS
10
6.3903543307086617
20
-3.
11
6.3895789370078742
21
-3.0078727559055118
0
LINE
8
BLACK
6
CONTINUOUS
10
6.3895789370078742
20
-3.0078727559055118
11
6.3872825590551177
21
-3.0154429527559055
0
LINE
8
BLACK
6
CONTINUOUS
10
6.3872825590551177
20
-3.0154429527559055
11
6.3835533858267715
21
-3.0224196456692911
0
LINE
8
BLACK
6
CONTINUOUS
10
6.3835533858267715
20
-3.0224196456692911
11
6.3785348031496065
21
-3.0285348031496064
0
LINE
8
BLACK
6
CONTINUOUS
10
6.3785348031496065
20
-3.0285348031496064
11
6.3724196456692912
21
-3.0335533858267714
0
LINE
8
BLACK
6
CONTINUOUS
10
6.3724196456692912
20
-3.0335533858267714
11
6.3654429527559051
21
-3.037282559055118
0
LINE
8
BLACK
6
CONTINUOUS
10
6.3654429527559051
20
-3.037282559055118
11
6.3578727559055119
21
-3.0395789370078741
0
LINE
8
BLACK
6
CONTINUOUS
10
6.3578727559055119
20
-3.0395789370078741
11
6.3499999999999996
21
-3.0403543307086616
0
LINE
8
BLACK
6
CONTINUOUS
10
6.3499999999999996
20
-3.0403543307086616
11
6.3421272440944882
21
-3.0395789370078741
0
LINE
8
BLACK
6
CONTINUOUS
10
6.3421272440944882
20
-3.0395789370078741
11
6.3345570472440942
21
-3.037282559055118
0
LINE
8
BLACK
6
CONTINUOUS
10
6.3345570472440942
20
-3.037282559055118
11
6.3275803543307081
21
-3.0335533858267714
0
LINE
8
BLACK
6
CONTINUOUS
10
6.3275803543307081
20
-3.0335533858267714
11
6.3214651968503937
21
-3.0285348031496064
0
LINE
8
BLACK
6
CONTINUOUS
10
6.3214651968503937
20
-3.0285348031496064
11
6.3164466141732278
21
-3.0224196456692911
0
LINE
8
BLACK
6
CONTINUOUS
10
6.3164466141732278
20
-3.0224196456692911
11
6.3127174409448816
21
-3.0154429527559055
0
LINE
8
BLACK
6
CONTINUOUS
10
6.3127174409448816
20
-3.0154429527559055
11
6.310421062992126
21
-3.0078727559055118
0
LINE
8
BLACK
6
CONTINUOUS
10
6.310421062992126
20
-3.0078727559055118
11
6.3096456692913385
21
-3.
0
LINE
8
BLACK
6
CONTINUOUS
10
6.3096456692913385
20
-3.
11
6.310421062992126
21
-2.9921272440944882
0
LINE
8
BLACK
6
CONTINUOUS
10
6.310421062992126
20
-2.9921272440944882
11
6.3127174409448816
21
-2.9845570472440945
0
LINE
8
BLACK
6
CONTINUOUS
10
6.3127174409448816
20
-2.9845570472440945
11
6.3164466141732278
21
-2.9775803543307084
0
LINE
8
BLACK
6
CONTINUOUS
10
6.3164466141732278
20
-2.9775803543307084
11
6.3214651968503937
21
-2.9714651968503936
0
LINE
8
BLACK
6
CONTINUOUS
10
6.3214651968503937
20
-2.9714651968503936
11
6.3275803543307081
21
-2.9664466141732282
0
LINE
8
BLACK
6
CONTINUOUS
10
6.3275803543307081
20
-2.9664466141732282
11
6.3345570472440942
21
-2.962717440944882
0
LINE
8
BLACK
6
CONTINUOUS
10
6.3345570472440942
20
-2.962717440944882
11
6.3421272440944882
21
-2.9604210629921259
0
LINE
8
BLACK
6
CONTINUOUS
10
6.3421272440944882
20
-2.9604210629921259
11
6.3499999999999996
21
-2.9596456692913384
0
LINE
8
BLACK
6
CONTINUOUS
10
6.3499999999999996
20
-2.9596456692913384
11
6.3578727559055119
21
-2.9604210629921259
0
LINE
8
BLACK
6
CONTINUOUS
10
6.3121695669291338
20
-3.007524960629921
11
6.3143645275590554
21
-3.0147607086614174
0
LINE
8
BLACK
6
CONTINUOUS
10
6.3143645275590554
20
-3.0147607086614174
11
6.3179288976377954
21
-3.021429212598425
0
LINE
8
BLACK
6
CONTINUOUS
10
6.3179288976377954
20
-3.021429212598425
11
6.3227257874015743
21
-3.0272742125984253
0
LINE
8
BLACK
6
CONTINUOUS
10
6.3227257874015743
20
-3.0272742125984253
11
6.3285707874015751
21
-3.0320711023622047
0
LINE
8
BLACK
6
CONTINUOUS
10
6.3285707874015751
20
-3.0320711023622047
11
6.3352392913385822
21
-3.0356354724409447
0
LINE
8
BLACK
6
CONTINUOUS
10
6.3352392913385822
20
-3.0356354724409447
11
6.3424750393700782
21
-3.0378304330708659
0
LINE
8
BLACK
6
CONTINUOUS
10
6.3424750393700782
20
-3.0378304330708659
11
6.3499999999999996
21
-3.0385715748031497
0
LINE
8
BLACK
6
CONTINUOUS
10
6.3499999999999996
20
-3.0385715748031497
11
6.3575249606299211
21
-3.0378304330708659
0
LINE
8
BLACK
6
CONTINUOUS
10
6.3575249606299211
20
-3.0378304330708659
11
6.3647607086614171
21
-3.0356354724409447
0
LINE
8
BLACK
6
CONTINUOUS
10
6.3647607086614171
20
-3.0356354724409447
11
6.3714292125984251
21
-3.0320711023622047
0
LINE
8
BLACK
6
CONTINUOUS
10
6.3714292125984251
20
-3.0320711023622047
11
6.377274212598425
21
-3.0272742125984253
0
LINE
8
BLACK
6
CONTINUOUS
10
6.377274212598425
20
-3.0272742125984253
11
6.3820711023622048
21
-3.021429212598425
0
LINE
8
BLACK
6
CONTINUOUS
10
6.3820711023622048
20
-3.021429212598425
11
6.3856354724409448
21
-3.0147607086614174
0
LINE
8
BLACK
6
CONTINUOUS
10
6.3856354724409448
20
-3.0147607086614174
11
6.3878304330708664
21
-3.007524960629921
0
LINE
8
BLACK
6
CONTINUOUS
10
6.3878304330708664
20
-3.007524960629921
11
6.3885715748031497
21
-3.
0
LINE
8
BLACK
6
CONTINUOUS
10
6.3885715748031497
20
-3.
11
6.3878304330708664
21
-2.9924750393700785
0
LINE
8
BLACK
6
CONTINUOUS
10
6.3878304330708664
20
-2.9924750393700785
11
6.3856354724409448
21
-2.9852392913385826
0
LINE
8
BLACK
6
CONTINUOUS
10
6.3856354724409448
20
-2.9852392913385826
11
6.3820711023622048
21
-2.9785707874015745
0
LINE
8
BLACK
6
CONTINUOUS
10
6.3820711023622048
20
-2.9785707874015745
11
6.377274212598425
21
-2.9727257874015747
0
LINE
8
BLACK
6
CONTINUOUS
10
6.377274212598425
20
-2.9727257874015747
11
6.3714292125984251
21
-2.9679288976377953
0
LINE
8
BLACK
6
CONTINUOUS
10
6.3714292125984251
20
-2.9679288976377953
11
6.3647607086614171
21
-2.9643645275590549
0
LINE
8
BLACK
6
CONTINUOUS
10
6.3647607086614171
20
-2.9643645275590549
11
6.3575249606299211
21
-2.9621695669291337
0
LINE
8
BLACK
6
CONTINUOUS
10
6.3575249606299211
20
-2.9621695669291337
11
6.3499999999999996
21
-2.9614284251968503
0
LINE
8
BLACK
6
CONTINUOUS
10
6.3499999999999996
20
-2.9614284251968503
11
6.3424750393700782
21
-2.9621695669291337
0
LINE
8
BLACK
6
CONTINUOUS
10
6.3424750393700782
20
-2.9621695669291337
11
6.3352392913385822
21
-2.9643645275590549
0
LINE
8
BLACK
6
CONTINUOUS
10
6.3352392913385822
20
-2.9643645275590549
11
6.3285707874015751
21
-2.9679288976377953
0
LINE
8
BLACK
6
CONTINUOUS
10
6.3285707874015751
20
-2.9679288976377953
11
6.3227257874015743
21
-2.9727257874015747
0
LINE
8
BLACK
6
CONTINUOUS
10
6.3227257874015743
20
-2.9727257874015747
11
6.3179288976377954
21
-2.9785707874015745
0
LINE
8
BLACK
6
CONTINUOUS
10
6.3179288976377954
20
-2.9785707874015745
11
6.3143645275590554
21
-2.9852392913385826
0
LINE
8
BLACK
6
CONTINUOUS
10
6.3143645275590554
20
-2.9852392913385826
11
6.3121695669291338
21
-2.9924750393700785
0
LINE
8
BLACK
6
CONTINUOUS
10
6.3121695669291338
20
-2.9924750393700785
11
6.3114284251968504
21
-3.
0
LINE
8
BLACK
6
CONTINUOUS
10
6.3114284251968504
20
-3.
11
6.3121695669291338
21
-3.007524960629921
0
LINE
8
BLACK
6
CONTINUOUS
10
6.5353766535433069
20
-2.4790906692913386
11
6.5356959842519684
21
-2.4793040157480313
0
LINE
8
BLACK
6
CONTINUOUS
10
6.5356959842519684
20
-2.4793040157480313
11
6.5456959448818894
21
-2.4893040157480315
0
LINE
8
BLACK
6
CONTINUOUS
10
6.5456959448818894
20
-2.4893040157480315
11
6.5459093307086613
21
-2.489623346456693
0
LINE
8
BLACK
6
CONTINUOUS
10
6.5459093307086613
20
-2.489623346456693
11
6.5459842519685036
21
-2.4899999999999998
0
LINE
8
BLACK
6
CONTINUOUS
10
6.5459842519685036
20
-2.4899999999999998
11
6.5459842519685036
21
-4.375
0
LINE
8
BLACK
6
CONTINUOUS
10
6.5459842519685036
20
-4.375
11
6.5459093307086613
21
-4.3753766535433067
0
LINE
8
BLACK
6
CONTINUOUS
10
6.5459093307086613
20
-4.3753766535433067
11
6.5459086220472438
21
-4.3753773228346455
0
LINE
8
BLACK
6
CONTINUOUS
10
6.5459086220472438
20
-4.3753773228346455
11
6.5459086220472438
21
-4.3753783070866143
0
LINE
8
BLACK
6
CONTINUOUS
10
6.5459086220472438
20
-4.3753783070866143
11
6.5456946850393702
21
-4.3756972440944883
0
LINE
8
BLACK
6
CONTINUOUS
10
6.5456946850393702
20
-4.3756972440944883
11
6.3744348425196851
21
-4.5463271653543309
0
LINE
8
BLACK
6
CONTINUOUS
10
6.3744348425196851
20
-4.5463271653543309
11
6.3741179527559053
21
-4.5465380708661414
0
LINE
8
BLACK
6
CONTINUOUS
10
6.3741179527559053
20
-4.5465380708661414
11
6.3741168110236215
21
-4.5465392519685039
0
LINE
8
BLACK
6
CONTINUOUS
10
6.3741168110236215
20
-4.5465392519685039
11
6.3741159448818898
21
-4.546539409448819
0
LINE
8
BLACK
6
CONTINUOUS
10
6.3741159448818898
20
-4.546539409448819
11
6.3741151574803148
21
-4.5465399606299215
0
LINE
8
BLACK
6
CONTINUOUS
10
6.3741151574803148
20
-4.5465399606299215
11
6.3741132283464568
21
-4.5465399212598427
0
LINE
8
BLACK
6
CONTINUOUS
10
6.3741132283464568
20
-4.5465399212598427
11
6.3737401574803147
21
-4.5466141732283463
0
LINE
8
BLACK
6
CONTINUOUS
10
6.3737401574803147
20
-4.5466141732283463
11
4.7249999999999996
21
-4.5466141732283463
0
LINE
8
BLACK
6
CONTINUOUS
10
4.7249999999999996
20
-4.5466141732283463
11
4.7246233464566929
21
-4.5465392519685039
0
LINE
8
BLACK
6
CONTINUOUS
10
4.7246233464566929
20
-4.5465392519685039
11
4.7246226377952754
21
-4.5465385433070864
0
LINE
8
BLACK
6
CONTINUOUS
10
4.7246226377952754
20
-4.5465385433070864
11
4.7246216535433065
21
-4.5465385433070864
0
LINE
8
BLACK
6
CONTINUOUS
10
4.7246216535433065
20
-4.5465385433070864
11
4.7243027165354325
21
-4.5463246062992129
0
LINE
8
BLACK
6
CONTINUOUS
10
4.7243027165354325
20
-4.5463246062992129
11
4.5543027559055114
21
-4.3756946850393703
0
LINE
8
BLACK
6
CONTINUOUS
10
4.5543027559055114
20
-4.3756946850393703
11
4.5540918897637797
21
-4.3753778740157481
0
LINE
8
BLACK
6
CONTINUOUS
10
4.5540918897637797
20
-4.3753778740157481
11
4.5540906692913383
21
-4.3753766535433067
0
LINE
8
BLACK
6
CONTINUOUS
10
4.5540906692913383
20
-4.3753766535433067
11
4.5540904724409446
21
-4.3753757480314963
0
LINE
8
BLACK
6
CONTINUOUS
10
4.5540904724409446
20
-4.3753757480314963
11
4.5540899606299208
21
-4.3753749606299213
0
LINE
8
BLACK
6
CONTINUOUS
10
4.5540899606299208
20
-4.3753749606299213
11
4.5540899606299208
21
-4.375373070866142
0
LINE
8
BLACK
6
CONTINUOUS
10
4.5540899606299208
20
-4.375373070866142
11
4.554015748031496
21
-4.375
0
LINE
8
BLACK
6
CONTINUOUS
10
4.554015748031496
20
-4.375
11
4.554015748031496
21
-2.4899999999999998
0
LINE
8
BLACK
6
CONTINUOUS
10
4.554015748031496
20
-2.4899999999999998
11
4.5540906692913383
21
-2.489623346456693
0
LINE
8
BLACK
6
CONTINUOUS
10
4.5540906692913383
20
-2.489623346456693
11
4.5543040157480315
21
-2.4893040157480315
0
LINE
8
BLACK
6
CONTINUOUS
10
4.5543040157480315
20
-2.4893040157480315
11
4.5643040157480312
21
-2.47930405511811
0
LINE
8
BLACK
6
CONTINUOUS
10
4.5643040157480312
20
-2.47930405511811
11
4.5646233464566928
21
-2.4790906692913386
0
LINE
8
BLACK
6
CONTINUOUS
10
4.5646233464566928
20
-2.4790906692913386
11
4.5649999999999995
21
-2.4790157480314958
0
LINE
8
BLACK
6
CONTINUOUS
10
4.5649999999999995
20
-2.4790157480314958
11
6.5350000000000001
21
-2.4790157480314958
0
LINE
8
BLACK
6
CONTINUOUS
10
6.5350000000000001
20
-2.4790157480314958
11
6.5353766535433069
21
-2.4790906692913386
0
LINE
8
BLACK
6
CONTINUOUS
10
4.5654076771653544
20
-2.4809842519685037
11
4.5559842519685034
21
-2.4904076771653543
0
LINE
8
BLACK
6
CONTINUOUS
10
4.5559842519685034
20
-2.4904076771653543
11
4.5559842519685034
21
-4.3745933858267714
0
LINE
8
BLACK
6
CONTINUOUS
10
4.5559842519685034
20
-4.3745933858267714
11
4.72540874015748
21
-4.5446456692913388
0
LINE
8
BLACK
6
CONTINUOUS
10
4.72540874015748
20
-4.5446456692913388
11
6.3733335433070861
21
-4.5446456692913388
0
LINE
8
BLACK
6
CONTINUOUS
10
6.3733335433070861
20
-4.5446456692913388
11
6.5440157480314962
21
-4.3745912204724409
0
LINE
8
BLACK
6
CONTINUOUS
10
6.5440157480314962
20
-4.3745912204724409
11
6.5440157480314962
21
-2.4904076771653543
0
LINE
8
BLACK
6
CONTINUOUS
10
6.5440157480314962
20
-2.4904076771653543
11
6.5345922834645664
21
-2.4809842519685037
0
LINE
8
BLACK
6
CONTINUOUS
10
6.5345922834645664
20
-2.4809842519685037
11
4.5654076771653544
21
-2.4809842519685037
  0
ENDSEC
  0
EOF
